<?xml version="1.0" encoding="utf-8"?>
<!-- Generator: Adobe Illustrator 28.0.0, SVG Export Plug-In . SVG Version: 6.00 Build 0)  -->
<svg version="1.1" id="Layer_1" xmlns="http://www.w3.org/2000/svg" xmlns:xlink="http://www.w3.org/1999/xlink" x="0px" y="0px"
	 viewBox="0 0 192 192" style="enable-background:new 0 0 192 192;" xml:space="preserve">
<g>
	<g>
		<path d="M112.23,117.56c-0.25,7.57-4.72,14.01-11.63,15.92c-0.11,0.03-7.49,2.27-14.26-2.8c-2.98-2.23-6.05-7.94-6.15-8.12
			c0.16,0.12,5.26,3.89,8.28,4.4c2.32,0.39,7.93-1.32,7.93-1.32s-3.88,5.3-6.82,4.91c10.99,1.47,13.78-3.39,13.78-3.39
			c1.64-2.45,2.64-5.88,2.64-9.21c0-1.91-0.31-3.74-0.88-5.46v0c-1.16-3.5-3.42-6.49-6.35-8.59c-1.52-1.08-3.22-1.93-5.05-2.48
			c-1.03-0.31-2.1-0.53-3.2-0.64c-0.58-0.06-1.17-0.09-1.77-0.09h-0.02c-0.27-0.02-0.55-0.03-0.83-0.03c-1.5,0-2.94,0.28-4.26,0.8
			c-1.45,0.57-2.76,1.42-3.87,2.48c-0.01-0.23-0.03-0.47-0.05-0.7c-0.04-0.38-0.09-0.76-0.15-1.14c-0.44-2.76-1.52-5.31-3.08-7.5
			c-3.23-4.55-8.55-7.51-14.55-7.51c-9.87,0-17.86,8-17.86,17.86c0,1.21,0.12,2.38,0.35,3.52c-0.88-4.03-1.35-8.22-1.35-12.51
			c0-6.76,1.15-13.25,3.28-19.28c1.55-4.41,3.62-8.58,6.14-12.44c5.92-9.08,14.32-16.4,24.23-21c2.3-1.07,7.06-2.73,7.36-2.83
			c-0.22,0.13-3.37,2.09-4.74,3.36c-0.99,0.92-1.89,1.92-2.7,3c-2.2,2.94-3.69,6.44-4.21,10.24c-0.26,1.41-0.4,2.86-0.4,4.35
			c0,5.24,1.02,10.71,4.61,14c0.43,0.39,1.86,1.67,3.76,3.37c1.3,1.17,2.83,2.53,4.4,3.93v0c3.8,3.39,7.85,7.02,9.65,8.65
			c1.76,1.61,3.41,3.18,4.91,4.67c1.81,1.8,3.43,3.49,4.79,4.97c3.22,3.48,5.09,5.82,5.12,5.86
			C112.66,111.57,112.26,116.77,112.23,117.56z"/>
		<path d="M148.91,94.97c0,0.52-0.01,1.04-0.02,1.56c-0.09,3.72-0.54,7.35-1.31,10.86c0.22-1.11,0.33-2.25,0.33-3.42
			c0-2.37-0.46-4.62-1.29-6.68c-1.51-3.74-4.25-6.85-7.71-8.83h0c-2.61-1.49-5.63-2.35-8.85-2.35c-7.16,0-13.33,4.21-16.18,10.29
			c-0.09,0.19-0.17,0.38-0.26,0.57c-0.79,1.85-1.27,3.86-1.39,5.97c-0.7-0.93-2.02-2.37-3.72-4.13c-1.4-1.44-3.05-3.1-4.83-4.86
			c-5.61-5.57-12.48-12.24-16.57-16.75c-1.71-1.88-2.93-3.39-3.36-4.29c0,0,0,0,0,0c0,0-0.01-0.01-0.01-0.01c0,0-0.33-0.6-0.64-1.19
			c-0.11-0.22-0.23-0.44-0.32-0.62c-0.96-1.94-1.53-4.05-1.66-6.2c-0.06-0.96-0.07-1.9,0.03-2.46c1.07-5.97,6.37-10.46,12.66-10.46
			c0.19,0,0.37,0,0.55,0.01c0.04,0,0.08,0,0.11,0c-0.02-0.03-0.03-0.06-0.05-0.09c-0.38-0.77-0.82-1.51-1.31-2.21
			c0.2,0.01,0.39,0.02,0.59,0.03c0.19,0.01,0.38,0.03,0.57,0.05c0.02,0,0.05,0,0.07,0.01c0.17,0.02,0.34,0.04,0.51,0.07
			c0.21,0.03,0.42,0.06,0.63,0.1c0.12,0.02,0.24,0.04,0.36,0.07c0.05,0.01,0.1,0.02,0.14,0.03c0.11,0.02,0.22,0.05,0.33,0.08
			c0.04,0.01,0.07,0.02,0.11,0.03c0.05,0.01,0.1,0.02,0.15,0.04c0.25,0.06,0.5,0.13,0.75,0.21c0.13,0.04,0.26,0.08,0.39,0.12
			c0.01,0,0.02,0,0.02,0.01c0.14,0.05,0.28,0.09,0.42,0.15c0.03,0.01,0.05,0.02,0.08,0.03c0.15,0.06,0.3,0.11,0.45,0.18
			c0.15,0.06,0.3,0.12,0.45,0.19c0.05,0.02,0.09,0.04,0.14,0.06c0.28,0.13,0.75,0.36,1.03,0.51c0.1,0.06,0.21,0.11,0.31,0.17
			c0.35,0.2,0.68,0.41,1.02,0.63c0,0,0,0,0,0c0.34,0.23,0.67,0.47,0.99,0.72c3.79,2.98,6.23,7.61,6.23,12.81
			c0,1.4-0.18,2.76-0.51,4.06c-0.37-1.46-0.94-2.84-1.68-4.11c-0.97-1.67-2.23-3.15-3.7-4.38c-0.68,2.6-2.22,4.84-4.31,6.42
			c0.56-0.93,0.88-2.03,0.88-3.2c0-1.96-0.91-3.71-2.32-4.84v0c-0.34-0.28-0.72-0.52-1.11-0.71c-0.84-0.42-1.78-0.66-2.78-0.66
			c-0.08,0-0.17,0-0.25,0.01c-0.06,0-0.12,0-0.18,0.01c-0.08,0-0.16,0.01-0.24,0.02c-0.07,0.01-0.14,0.02-0.21,0.03
			c-0.01,0-0.03,0-0.04,0.01c-0.04,0-0.08,0.01-0.12,0.02c-0.07,0.01-0.13,0.02-0.2,0.04c-0.03,0.01-0.05,0.01-0.08,0.02
			c-0.16,0.04-0.32,0.08-0.48,0.12c-0.08,0.02-0.16,0.05-0.25,0.08c-0.06,0.02-0.11,0.04-0.17,0.06c-0.06,0.02-0.11,0.04-0.16,0.07
			c-0.05,0.02-0.1,0.04-0.14,0.06c-0.05,0.02-0.1,0.04-0.14,0.07c-0.05,0.02-0.1,0.04-0.14,0.07c-0.21,0.1-0.41,0.22-0.61,0.35
			c-0.06,0.04-0.12,0.08-0.18,0.12c-0.01,0.01-0.02,0.01-0.03,0.02c-0.06,0.04-0.11,0.08-0.17,0.12c-0.04,0.03-0.09,0.07-0.12,0.1
			c-0.01,0.01-0.02,0.01-0.02,0.02c-0.08,0.06-0.15,0.13-0.23,0.19c-0.08,0.07-0.14,0.13-0.21,0.2c-0.08,0.08-0.16,0.16-0.23,0.24
			c-0.03,0.03-0.05,0.06-0.08,0.09v0c0,0,0,0.01-0.01,0.01c-0.02,0.02-0.03,0.03-0.04,0.05c-0.04,0.05-0.08,0.09-0.11,0.14
			c-0.28,0.35-0.53,0.73-0.73,1.14c-0.03,0.05-0.05,0.1-0.07,0.15c-0.04,0.08-0.07,0.15-0.1,0.23c-0.04,0.08-0.07,0.15-0.09,0.24v0
			c-0.01,0.04-0.01,0.08-0.02,0.11c-0.09,0.61-0.14,1.23-0.14,1.86c0,0.9,0.09,1.78,0.28,2.63c0.36,1.71,1.08,3.3,2.09,4.72v0
			c0.02,0.02,0.03,0.04,0.05,0.07c1.7,2.38,4.21,4.27,7.17,5.36c1.81,0.66,3.79,1.03,5.87,1.03c0.11,0,0.22,0,0.33,0
			c0.75-0.01,1.49-0.08,2.22-0.19h0c1.1-0.16,2.16-0.43,3.17-0.79c1.54-0.55,2.96-1.31,4.21-2.25c0.96-0.72,1.82-1.54,2.56-2.44
			c0.68-0.83,1.26-1.73,1.72-2.68c2.04-3.35,3.21-7.3,3.21-11.51c0-6.27-2.59-11.93-6.77-15.97c-0.82-0.8-1.7-1.53-2.63-2.18
			c1.2,0.44,2.38,0.92,3.54,1.43c16.57,7.35,29.06,22.22,33.14,40.27c0.35,1.53,0.63,3.08,0.86,4.65
			C148.72,89.42,148.91,92.17,148.91,94.97z"/>
	</g>
	<path d="M174.18,40.25c-0.22-2.81-0.5-5.61-0.87-8.38c-0.98,0.03-1.96,0.04-2.95,0.04c-1.43,0-2.85-0.03-4.27-0.08
		c-23.96-0.92-45.96-9.54-63.58-23.45C100.27,6.61,98.1,4.75,96,2.8c-2.11,1.95-4.29,3.81-6.54,5.59
		C71.77,22.36,49.68,30.98,25.6,31.84c-1.32,0.05-2.64,0.07-3.97,0.07c-1.11,0-2.22-0.02-3.32-0.05c-0.3,2.77-0.53,5.57-0.69,8.38
		c-0.18,3.11-0.27,6.25-0.27,9.4c0,56.07,28.28,105.54,71.35,134.91c2.35,1.61,4.75,3.15,7.19,4.64c2.59-1.5,5.13-3.07,7.62-4.72
		c42.85-28.24,71.13-76.79,71.13-131.96C174.65,48.39,174.49,44.3,174.18,40.25z M96.14,179.92C53.17,151.69,24.8,103.07,24.8,47.82
		c0-2.46,0.05-4.9,0.17-7.32h0.05c27.06,0,51.84-9.82,70.95-26.08c19.07,16.23,43.77,26.04,70.77,26.08
		c0.12,2.55,0.19,5.11,0.19,7.69C166.93,103.2,138.81,151.64,96.14,179.92z"/>
</g>
</svg>
